<?xml version="1.0" standalone="no"?>
<!DOCTYPE svg PUBLIC "-//W3C//DTD SVG 20010904//EN"
 "http://www.w3.org/TR/2001/REC-SVG-20010904/DTD/svg10.dtd">
<svg version="1.0" xmlns="http://www.w3.org/2000/svg"
 width="826.000000pt" height="751.000000pt" viewBox="0 0 826.000000 751.000000"
 preserveAspectRatio="xMidYMid meet">
<metadata>
Created by potrace 1.16, written by Peter Selinger 2001-2019
</metadata>
<g transform="translate(0.000000,751.000000) scale(0.100000,-0.100000)"
fill="#000000" stroke="none">
<path d="M3523 6280 c-50 -20 -95 -164 -120 -385 -11 -95 -16 -241 -18 -455
l-1 -315 -42 -110 c-43 -111 -160 -353 -192 -395 -24 -32 -51 -20 -96 42 -43
58 -70 132 -80 216 l-6 57 38 14 c95 34 184 124 225 228 19 47 23 77 24 163 0
115 -10 143 -60 176 -34 22 -152 30 -209 14 -128 -36 -230 -229 -243 -461 -7
-131 12 -226 67 -337 93 -185 241 -260 362 -183 60 38 84 71 164 231 l68 135
8 -60 c4 -33 19 -175 33 -317 13 -141 29 -267 34 -281 25 -66 233 -57 270 12
12 21 7 1822 -5 1887 -13 72 -28 90 -96 113 -67 23 -91 25 -125 11z m-406
-887 c13 -20 18 -46 17 -100 -1 -93 -42 -182 -112 -244 l-47 -41 -3 38 c-8 91
39 297 79 348 26 33 44 33 66 -1z"/>
<path d="M5250 5888 c-17 -18 -45 -62 -64 -98 -27 -50 -46 -73 -85 -97 -94
-62 -254 -133 -267 -120 -3 3 7 28 21 57 15 29 24 58 21 66 -7 17 -72 50 -129
65 -88 22 -145 -18 -216 -151 -68 -127 -114 -321 -125 -524 -6 -95 -8 -102
-47 -162 -49 -75 -140 -164 -168 -164 -26 0 -67 60 -87 127 -33 109 -28 275
16 494 35 171 109 387 129 375 5 -3 14 -28 21 -54 18 -77 -9 -202 -81 -380
-12 -28 -12 -34 1 -42 40 -25 106 19 147 97 42 78 57 153 51 255 -5 107 -37
170 -101 199 -55 24 -127 24 -176 -1 -176 -89 -337 -516 -302 -798 25 -197
108 -317 248 -358 100 -29 176 0 295 115 l78 76 11 -28 c19 -47 67 -105 98
-122 44 -22 110 -19 162 8 78 42 161 194 210 386 22 87 24 197 5 296 -8 39
-11 73 -8 76 7 7 141 39 160 39 6 0 -3 -52 -19 -115 -33 -128 -105 -557 -115
-681 -6 -71 -4 -85 12 -108 29 -41 91 -68 166 -74 119 -8 128 -2 159 132 21
84 118 278 255 507 68 113 100 152 89 108 -8 -33 -75 -400 -75 -410 0 -17 45
-49 69 -49 38 1 58 21 172 175 114 153 215 275 229 275 5 0 -7 -34 -27 -76
-77 -169 -173 -512 -172 -619 1 -129 61 -205 169 -213 57 -4 94 8 201 65 4 2
9 -7 13 -20 9 -38 79 -110 137 -142 44 -23 69 -30 137 -33 77 -4 87 -2 146 27
119 59 237 216 221 297 -8 43 -53 74 -107 74 -49 0 -56 -15 -23 -50 l27 -28
-20 -44 c-40 -92 -186 -203 -236 -180 -74 33 -88 243 -26 388 l19 42 43 -15
c69 -24 208 -13 280 22 150 73 274 243 247 338 -18 68 -136 150 -238 166 -116
18 -239 -22 -335 -110 -143 -131 -247 -316 -287 -514 -17 -83 -21 -93 -60
-127 -45 -41 -63 -48 -55 -20 3 9 15 58 26 107 10 50 29 124 40 165 151 557
161 644 84 715 -33 31 -87 33 -129 5 -51 -33 -154 -142 -275 -289 -63 -77
-118 -140 -121 -140 -3 -1 9 61 28 137 46 188 49 229 24 270 -23 35 -55 42
-92 20 -12 -7 -75 -82 -141 -166 -66 -84 -122 -151 -124 -149 -3 2 11 89 30
193 45 246 63 432 44 470 -17 35 -90 74 -140 74 -31 0 -45 -6 -68 -32z m-449
-475 c41 -142 -11 -408 -111 -563 -46 -71 -55 -56 -54 88 0 125 16 203 73 365
39 111 60 157 70 157 5 0 15 -21 22 -47z m2047 -305 c46 -46 -62 -196 -171
-237 -34 -13 -107 -14 -126 -2 -20 13 3 47 93 137 97 97 172 134 204 102z"/>
<path d="M2423 5893 c-19 -7 -16 -28 8 -49 80 -73 160 -440 200 -929 16 -192
2 -495 -22 -495 -17 0 -138 267 -203 450 -128 356 -173 463 -210 499 l-35 34
-66 -13 c-72 -14 -123 -42 -142 -80 -41 -81 17 -338 134 -593 41 -90 46 -109
59 -234 8 -75 13 -141 11 -147 -4 -9 -131 242 -190 374 -53 120 -184 438 -232
564 -59 157 -97 239 -123 269 -32 36 -176 10 -234 -42 -31 -28 -32 -29 -36
-142 -7 -197 43 -379 178 -654 103 -209 213 -368 345 -501 60 -62 129 -121
152 -133 84 -42 189 -17 235 57 19 31 20 43 14 142 -3 60 -9 124 -13 142 -6
33 -6 32 66 -34 147 -136 260 -152 343 -48 65 82 79 329 39 715 -33 322 -66
504 -126 693 -38 121 -95 179 -152 155z"/>
<path d="M2293 3388 c-37 -40 -72 -118 -119 -262 -94 -293 -124 -466 -131
-759 -9 -375 36 -693 125 -889 54 -118 105 -158 205 -158 100 0 142 48 198
225 46 147 45 146 53 110 57 -262 119 -389 206 -425 46 -19 134 -7 175 25 85
64 184 386 311 1010 50 245 63 375 42 415 -30 56 -128 91 -158 55 -10 -12 -9
-22 5 -51 23 -48 19 -78 -50 -399 -86 -401 -169 -715 -188 -715 -12 0 -3 625
13 855 7 93 9 203 5 244 -9 94 -33 123 -120 141 -75 15 -113 5 -138 -38 -54
-92 -109 -334 -127 -557 -9 -109 -21 -171 -52 -280 -55 -192 -109 -355 -118
-355 -27 0 -24 673 5 915 9 77 41 262 70 410 30 149 57 304 61 346 l6 75 -31
27 c-38 32 -118 57 -181 57 -35 0 -52 -5 -67 -22z"/>
<path d="M5821 3224 c-37 -47 -66 -179 -76 -349 -3 -55 -8 -125 -11 -156 l-6
-57 -46 -7 c-105 -16 -198 -94 -259 -218 -17 -34 -61 -163 -97 -287 -81 -273
-175 -558 -186 -565 -13 -8 -23 198 -16 309 3 55 18 210 31 344 29 278 30 376
10 517 -16 117 -30 136 -120 156 -72 16 -104 5 -127 -41 -9 -19 -42 -145 -72
-280 -34 -153 -85 -340 -136 -500 -45 -140 -99 -311 -120 -380 -73 -234 -154
-434 -174 -427 -6 2 -15 34 -20 71 -13 105 23 361 123 861 75 377 83 464 47
548 -17 43 -70 68 -150 74 -77 5 -105 -9 -133 -69 -21 -43 -107 -127 -119
-116 -3 3 -8 23 -11 44 -3 22 -14 51 -25 66 -36 52 -160 89 -243 74 -68 -13
-144 -107 -145 -179 0 -68 76 -147 158 -163 18 -4 32 -12 32 -19 0 -16 -81
-87 -127 -112 -27 -14 -37 -15 -73 -4 -40 12 -41 13 -34 44 14 60 11 71 -26
89 -48 24 -141 24 -163 0 -27 -29 -83 -161 -105 -247 -49 -187 -55 -458 -13
-616 22 -84 68 -184 98 -211 49 -45 140 -61 192 -34 84 44 169 247 192 458 10
92 1 303 -17 404 -5 30 -2 33 51 64 31 18 87 63 124 101 45 46 82 74 111 84
24 8 45 13 48 11 2 -3 -9 -60 -26 -128 -85 -340 -115 -694 -77 -894 29 -155
110 -306 185 -345 84 -45 186 -12 256 84 57 76 96 161 174 372 34 94 65 173
69 178 4 4 13 -23 20 -60 56 -313 192 -472 344 -405 84 37 129 126 218 429 30
101 56 183 59 183 3 0 14 -24 24 -52 34 -100 65 -125 143 -113 63 9 125 69
173 168 36 74 40 79 48 56 5 -13 19 -51 31 -84 65 -176 170 -316 245 -331 140
-26 208 51 245 278 40 241 39 429 -3 491 -39 59 -124 42 -86 -17 34 -51 18
-351 -27 -531 -15 -56 -22 -70 -37 -70 -35 0 -93 208 -115 407 -6 54 -11 283
-11 510 0 365 -7 510 -26 571 -9 27 -58 47 -118 47 -47 0 -57 -4 -75 -26z
m-1817 -506 c29 -40 15 -139 -21 -152 -19 -8 -57 19 -71 50 -20 42 -14 70 19
98 37 32 53 33 73 4z m1713 -358 c-3 -110 -10 -158 -36 -258 -39 -151 -66
-224 -90 -246 -18 -17 -20 -17 -29 1 -9 18 -26 88 -36 153 -8 47 10 226 30
303 21 83 68 176 112 224 l35 38 9 -40 c5 -22 8 -101 5 -175z m-2006 -140 c53
-72 73 -357 36 -505 -25 -97 -84 -217 -105 -213 -39 8 -68 216 -52 385 10 112
42 291 60 339 12 31 36 29 61 -6z"/>
</g>
</svg>
